<svg xmlns="http://www.w3.org/2000/svg" width="123" height="39" viewBox="0 0 123 39">
    <defs>
        <style>
            .cls-1{fill:#fff}.cls-2{fill:#cd0719}.cls-3{fill:#1a0b08}.cls-4,.cls-5{stroke:none}.cls-5{fill:#d5d5d5}
        </style>
    </defs>
    <g id="_1010_logo" data-name="1010_logo" transform="translate(-3436 -5117)">
        <g id="패스_2688" class="cls-1" data-name="패스 2688">
            <path d="M122.5 38.5H.5V.5h122v38z" class="cls-4" transform="translate(3436 5117)"/>
            <path d="M1 1v37h121V1H1M0 0h123v39H0V0z" class="cls-5" transform="translate(3436 5117)"/>
        </g>
        <g id="그룹_1835" data-name="그룹 1835" transform="translate(3095.687 5001.393)">
            <path id="패스_2689" d="M362.483 144.172c-.74-.028-1.473-.7-2.06-1.892-1.384-2.81-1.658-7.763.055-10.184a3.459 3.459 0 0 1 3.457-1.473c2.449.292 5.527 1.829 6.662 4.2a4.395 4.395 0 0 1-.381 4.4 3.463 3.463 0 0 1-2.981 1.837c-2.231.019-4.8-2.073-6.092-4.052-1.515-2.321-1.865-4.468-.957-5.886.84-1.317 2.689-1.842 5.2-1.477a9.517 9.517 0 0 1 4.993 2.494 7.938 7.938 0 0 1 2.588 4.5c.32 2.278-.947 4.179-3.563 5.352-2.434 1.091-6.546.119-9.563-2.262-2.374-1.876-3.5-4.2-3.087-6.379.383-2.019 1.989-3.145 4.4-3.087 3.04.069 6.7 2.088 7.1 4.869a6.266 6.266 0 0 1-2.5 6.247 5.866 5.866 0 0 1-6.371-.113c-3.1-1.862-3.811-4.8-3.134-6.893.607-1.878 2.559-3.775 6.211-3.463 3.524.3 7.263 3.166 8 6.134.363 1.448.191 3.563-2.671 5.416a6.137 6.137 0 0 1-4.126.836 9.932 9.932 0 0 1-4.254-1.643c-2.114-1.426-4.167-3.99-3.6-6.91a4.984 4.984 0 0 1 4.476-4.268c3.5-.464 7.815 1.681 9.237 4.591a6.111 6.111 0 0 1-1.532 7.32c-1.625 1.266-3.6 1.106-5.423-.437a6.009 6.009 0 0 1-1.826-6.154 6.4 6.4 0 0 1 4.915-4.763l-.039-.2a6.609 6.609 0 0 0-5.07 4.908 6.209 6.209 0 0 0 1.891 6.353c1.9 1.612 3.964 1.773 5.673.444a6.315 6.315 0 0 0 1.591-7.563c-1.456-2.978-5.871-5.174-9.445-4.7a5.161 5.161 0 0 0-4.641 4.426c-.49 2.522.923 5.245 3.683 7.111 2.928 1.976 6.3 2.295 8.6.808 2.96-1.915 3.135-4.117 2.757-5.629a7.953 7.953 0 0 0-3.078-4.218 10.237 10.237 0 0 0-5.1-2.064c-3.769-.321-5.786 1.648-6.416 3.6-.7 2.163.024 5.205 3.222 7.124a6.06 6.06 0 0 0 6.581.108 6.474 6.474 0 0 0 2.583-6.439c-.407-2.879-4.168-4.967-7.287-5.04-2.524-.059-4.2 1.126-4.605 3.25-.428 2.251.727 4.645 3.158 6.567 3.073 2.425 7.271 3.408 9.766 2.29 2.706-1.213 4.012-3.187 3.68-5.56a8.152 8.152 0 0 0-2.647-4.608 9.738 9.738 0 0 0-5.094-2.545c-2.6-.376-4.514.181-5.4 1.568-.951 1.485-.6 3.71.959 6.1 1.351 2.074 3.936 4.163 6.259 4.142a3.652 3.652 0 0 0 3.146-1.933 4.577 4.577 0 0 0 .393-4.589c-1.168-2.438-4.314-4.014-6.817-4.311a3.637 3.637 0 0 0-3.643 1.552 8.724 8.724 0 0 0-1.229 5.113 13.157 13.157 0 0 0 1.159 5.274c.632 1.276 1.4 1.968 2.23 2z" class="cls-2" data-name="패스 2689"/>
            <path id="패스_2690" d="M370.25 136.651a6.893 6.893 0 1 1-6.893-6.893 6.9 6.9 0 0 1 6.893 6.893m-6.893-11.044a11.044 11.044 0 1 0 11.043 11.044 11.058 11.058 0 0 0-11.045-11.044" class="cls-2" data-name="패스 2690"/>
            <path id="패스_2691" d="M384.072 130.892l-.047-.072-4.831 3.221 1.691 2.65 4.058-2.91v9.083h3.563v-12.057h-4.434zm21.473 3.608a8.435 8.435 0 0 0-.379-1.676 3.046 3.046 0 0 0-.631-.976 2.738 2.738 0 0 0-1.2-.714 10.97 10.97 0 0 0-1.059-.258 6.558 6.558 0 0 0-1.186-.109q-.371 0-1.711-.069-.574-.03-.991-.03c-.272 0-.706.016-1.306.049s-1.063.05-1.393.05a6.463 6.463 0 0 0-2.1.31 3.842 3.842 0 0 0-1.342.766c-.787.714-1.147 2.457-1.152 5.258q0 1.1.088 2.077a4.886 4.886 0 0 0 .737 2.408 3.475 3.475 0 0 0 2.2 1.188 13.516 13.516 0 0 0 1.9.178q1.224.05 3.1.05l.761-.019c.261-.008.534-.011.817-.011a5.893 5.893 0 0 0 .7-.044c.239-.029.477-.059.712-.084a4.022 4.022 0 0 0 2.56-1.045 4.52 4.52 0 0 0 .926-2.621q.081-.792.08-2c0-.456-.011-.9-.035-1.335s-.058-.883-.1-1.345m-3.424 3.551a1.962 1.962 0 0 1-.127.743 1.374 1.374 0 0 1-.341.5 1.339 1.339 0 0 1-.531.293 2.6 2.6 0 0 1-.765.1c-.254 0-.6.015-1.026.043s-.733.044-.912.044a17.321 17.321 0 0 1-2.414-.128 1.432 1.432 0 0 1-1.34-1.588v-2.336a1.8 1.8 0 0 1 .473-1.348 1.886 1.886 0 0 1 1.381-.467h3.749c1.26.122 1.841.7 1.853 1.813zm22.4-7.2h-4.961l-3.727 4.135-3.7-4.135h-5.018l5.638 5.96-5.948 6.049h5.122l3.913-4.276 3.875 4.276h5.189l-5.979-6.05zm5.768.037l-.05-.072-4.831 3.22 1.693 2.653 4.056-2.912v9.083h3.563V130.8h-4.431zm21.574 4.952a35.882 35.882 0 0 0-.1-1.344 8.6 8.6 0 0 0-.378-1.676 3.067 3.067 0 0 0-.63-.976 2.731 2.731 0 0 0-1.2-.714 10.742 10.742 0 0 0-1.059-.258 6.665 6.665 0 0 0-1.188-.11c-.244 0-.817-.022-1.71-.068-.383-.019-.711-.03-.989-.03s-.708.017-1.307.05-1.062.048-1.393.048a6.487 6.487 0 0 0-2.1.311 3.857 3.857 0 0 0-1.342.766c-.787.714-1.148 2.458-1.154 5.257 0 .732.032 1.425.09 2.076a4.9 4.9 0 0 0 .736 2.409 3.5 3.5 0 0 0 2.2 1.189 13.885 13.885 0 0 0 1.9.177c.815.033 1.85.049 3.1.049l.762-.018q.392-.011.815-.011a5.7 5.7 0 0 0 .7-.045c.238-.029.478-.057.712-.083a4.025 4.025 0 0 0 2.56-1.044 4.536 4.536 0 0 0 .927-2.62q.081-.795.08-2 0-.681-.035-1.335m-3.528 2.208a1.894 1.894 0 0 1-.128.741 1.293 1.293 0 0 1-.87.792 2.561 2.561 0 0 1-.765.1c-.255 0-.6.014-1.027.044s-.733.044-.913.044a17.48 17.48 0 0 1-2.411-.127 1.432 1.432 0 0 1-1.342-1.588v-2.338a1.8 1.8 0 0 1 .474-1.351 1.886 1.886 0 0 1 1.379-.465h3.75c1.261.121 1.842.7 1.853 1.812z" class="cls-3" data-name="패스 2691"/>
        </g>
    </g>
</svg>
