<svg xmlns="http://www.w3.org/2000/svg" width="123" height="39" viewBox="0 0 123 39">
    <defs>
        <style>
            .cls-1,.cls-2{fill:none}.cls-1{clip-rule:evenodd}.cls-3{fill:#fff;stroke:#d5d5d5}.cls-4{clip-path:url(#clip-path)}.cls-5{fill:#da2731}.cls-6{clip-path:url(#clip-path-2)}.cls-7{clip-path:url(#clip-path-3)}.cls-8{clip-path:url(#clip-path-4)}.cls-9{clip-path:url(#clip-path-5)}.cls-10{clip-path:url(#clip-path-6)}.cls-11{clip-path:url(#clip-path-7)}.cls-12{clip-path:url(#clip-path-8)}.cls-13{clip-path:url(#clip-path-9)}.cls-14{clip-path:url(#clip-path-10)}.cls-15{stroke:none}
        </style>
        <clipPath id="clip-path">
            <path id="패스_2264" d="M240.116 13.489v14.069a.167.167 0 0 1-.164.166h-4.417a.168.168 0 0 1-.146-.091l-4.854-8.933v8.861a.165.165 0 0 1-.161.166h-3.3a.17.17 0 0 1-.167-.166V13.489a.168.168 0 0 1 .167-.166h4.412a.159.159 0 0 1 .145.088l4.857 8.989v-8.911a.165.165 0 0 1 .164-.166h3.3a.165.165 0 0 1 .164.166" class="cls-1" data-name="패스 2264"/>
        </clipPath>
        <clipPath id="clip-path-2">
            <path id="패스_2265" d="M217.122 13.1c-6.5 0-7.762 4.813-7.762 7.427s1.266 7.432 7.762 7.432 7.76-4.81 7.76-7.432-1.268-7.427-7.76-7.427m0 11.7c-2.484 0-3.5-1.986-3.5-4.275s1.013-4.272 3.5-4.272 3.493 1.988 3.493 4.272-1.011 4.275-3.493 4.275" class="cls-1" data-name="패스 2265"/>
        </clipPath>
        <clipPath id="clip-path-3">
            <path id="패스_2266" d="M207.007 27.723H203.3a.169.169 0 0 1-.166-.164V13.49a.172.172 0 0 1 .166-.169h3.711a.171.171 0 0 1 .172.169v14.069a.169.169 0 0 1-.172.164" class="cls-1" data-name="패스 2266"/>
        </clipPath>
        <clipPath id="clip-path-4">
            <path id="패스_2267" d="M201.475 13.321H190.5a.128.128 0 0 0-.13.13v2.794a.127.127 0 0 0 .13.13h3.461v11.22a.131.131 0 0 0 .133.128h3.791a.126.126 0 0 0 .127-.128v-11.22h3.467a.132.132 0 0 0 .13-.13v-2.794a.132.132 0 0 0-.13-.13" class="cls-1" data-name="패스 2267"/>
        </clipPath>
        <clipPath id="clip-path-5">
            <path id="패스_2268" d="M185.635 16.2a6.411 6.411 0 0 1 3.069.491.084.084 0 0 0 .127-.073v-3a.085.085 0 0 0-.054-.08 10.111 10.111 0 0 0-3.467-.5c-2.31 0-8.638.827-8.638 7.484S183 28 185.31 28a10.273 10.273 0 0 0 3.467-.5.092.092 0 0 0 .054-.083v-3a.085.085 0 0 0-.127-.073 6.392 6.392 0 0 1-3.069.494c-2.383 0-4.7-1.013-4.7-4.324s2.313-4.321 4.7-4.321" class="cls-1" data-name="패스 2268"/>
        </clipPath>
        <clipPath id="clip-path-6">
            <path id="패스_2269" d="M170.642 13.354a.194.194 0 0 0-.192.19v8.44s.031 2.916-2.487 2.916-2.484-2.916-2.484-2.916v-8.44a.188.188 0 0 0-.192-.19h-3.724a.194.194 0 0 0-.192.19v8.848c0 3.906 2.913 5.618 6.592 5.618s6.593-1.712 6.593-5.618v-8.848a.187.187 0 0 0-.192-.19z" class="cls-1" data-name="패스 2269"/>
        </clipPath>
        <clipPath id="clip-path-7">
            <path id="패스_2270" d="M247.7 25.287a2.734 2.734 0 1 1-2.734-2.734 2.737 2.737 0 0 1 2.734 2.734" class="cls-1" data-name="패스 2270"/>
        </clipPath>
        <clipPath id="clip-path-8">
            <path id="사각형_1214" d="M0 0h7.606v6.338H0z" class="cls-2" data-name="사각형 1214" transform="translate(241.118 22.221)"/>
        </clipPath>
        <clipPath id="clip-path-9">
            <path id="패스_2271" d="M155.189 12.144h-8.323a.133.133 0 0 0-.138.137v2.908a.133.133 0 0 0 .138.135h2.045l-4.122 12.286a.134.134 0 0 0 .128.182h3.926a.14.14 0 0 0 .133-.1l.821-2.837h5.514l.811 2.837a.14.14 0 0 0 .132.1h4.09a.139.139 0 0 0 .13-.182l-5.163-15.373a.132.132 0 0 0-.122-.093zm-4.472 9.547l1.847-6.367 1.837 6.367z" class="cls-1" data-name="패스 2271"/>
        </clipPath>
        <clipPath id="clip-path-10">
            <path id="사각형_1216" d="M0 0h16.479v16.479H0z" class="cls-2" data-name="사각형 1216" transform="translate(144.781 12.081)"/>
        </clipPath>
    </defs>
    <g id="auction_logo" transform="translate(-376 -5117)">
        <g id="사각형_1107" class="cls-3" data-name="사각형 1107">
            <path d="M0 0h123v39H0z" class="cls-15" transform="translate(376 5117)"/>
            <path d="M.5.5h122v38H.5z" class="cls-2" transform="translate(376 5117)"/>
        </g>
        <g id="그룹_1717" data-name="그룹 1717" transform="translate(241.219 5116.856)">
            <g id="그룹_1694" data-name="그룹 1694">
                <g id="그룹_1693" class="cls-4" data-name="그룹 1693">
                    <path id="사각형_1207" d="M0 0h25.89v27.077H0z" class="cls-5" data-name="사각형 1207" transform="translate(220.564 6.985)"/>
                </g>
            </g>
            <g id="그룹_1696" data-name="그룹 1696">
                <g id="그룹_1695" class="cls-6" data-name="그룹 1695">
                    <path id="사각형_1208" d="M0 0h28.197v27.535H0z" class="cls-5" data-name="사각형 1208" transform="translate(203.022 6.765)"/>
                </g>
            </g>
            <g id="그룹_1698" data-name="그룹 1698">
                <g id="그룹_1697" class="cls-7" data-name="그룹 1697">
                    <path id="사각형_1209" d="M0 0h16.725v27.077H0z" class="cls-5" data-name="사각형 1209" transform="translate(196.792 6.983)"/>
                </g>
            </g>
            <g id="그룹_1700" data-name="그룹 1700">
                <g id="그룹_1699" class="cls-8" data-name="그룹 1699">
                    <path id="사각형_1210" d="M0 0h23.915v27.077H0z" class="cls-5" data-name="사각형 1210" transform="translate(184.028 6.983)"/>
                </g>
            </g>
            <g id="그룹_1702" data-name="그룹 1702">
                <g id="그룹_1701" class="cls-9" data-name="그룹 1701">
                    <path id="사각형_1211" d="M0 0h24.835v27.641H0z" class="cls-5" data-name="사각형 1211" transform="translate(170.334 6.701)"/>
                </g>
            </g>
            <g id="그룹_1704" data-name="그룹 1704">
                <g id="그룹_1703" class="cls-10" data-name="그룹 1703">
                    <path id="사각형_1212" d="M0 0h25.861v27.332H0z" class="cls-5" data-name="사각형 1212" transform="translate(155.033 7.016)"/>
                </g>
            </g>
            <g id="그룹_1711" data-name="그룹 1711">
                <g id="그룹_1710" data-name="그룹 1710">
                    <g id="그룹_1709" data-name="그룹 1709">
                        <g id="그룹_1708" data-name="그룹 1708">
                            <g id="그룹_1707" class="cls-11" data-name="그룹 1707">
                                <g id="그룹_1706" data-name="그룹 1706">
                                    <g id="그룹_1705" class="cls-12" data-name="그룹 1705">
                                        <path id="사각형_1213" d="M0 0h18.143v18.143H0z" class="cls-5" data-name="사각형 1213" transform="translate(235.896 16.215)"/>
                                    </g>
                                </g>
                            </g>
                        </g>
                    </g>
                </g>
            </g>
            <g id="그룹_1716" data-name="그룹 1716">
                <g id="그룹_1715" data-name="그룹 1715">
                    <g id="그룹_1714" class="cls-13" data-name="그룹 1714">
                        <g id="그룹_1713" data-name="그룹 1713">
                            <g id="그룹_1712" class="cls-14" data-name="그룹 1712">
                                <path id="사각형_1215" d="M0 0h28.376v28.325H0z" class="cls-5" data-name="사각형 1215" transform="translate(138.443 5.806)"/>
                            </g>
                        </g>
                    </g>
                </g>
            </g>
        </g>
    </g>
</svg>
