<svg xmlns="http://www.w3.org/2000/svg" width="123" height="39" viewBox="0 0 123 39">
    <defs>
        <style>
            .cls-1{fill:#fff}.cls-2{fill:#73c948}.cls-3{fill:#32b8b9}.cls-4{fill:#fd9c19}.cls-5{fill:#3367b1}.cls-6{fill:#004985}.cls-7{fill:#c8c9ca}.cls-8,.cls-9{stroke:none}.cls-9{fill:#d5d5d5}
        </style>
    </defs>
    <g id="ezwell_logo" transform="translate(-2549 -5117)">
        <g id="패스_2654" class="cls-1" data-name="패스 2654">
            <path d="M122.5 38.5H.5V.5h122v38z" class="cls-8" transform="translate(2549 5117)"/>
            <path d="M1 1v37h121V1H1M0 0h123v39H0V0z" class="cls-9" transform="translate(2549 5117)"/>
        </g>
        <g id="그룹_1824" data-name="그룹 1824" transform="translate(2545.691 5025.337)">
            <g id="그룹_1821" data-name="그룹 1821" transform="translate(19.309 100.663)">
                <g id="그룹_1818" data-name="그룹 1818" transform="translate(0 7.971)">
                    <path id="패스_2655" d="M28.687 110.13v3.723h-6.251a3.137 3.137 0 0 1-3.127-3.128V107h6.251a3.137 3.137 0 0 1 3.127 3.13z" class="cls-2" data-name="패스 2655" transform="translate(-19.309 -107.002)"/>
                </g>
                <g id="그룹_1819" data-name="그룹 1819" transform="translate(2.673)">
                    <path id="패스_2656" d="M28.14 104.641a3.7 3.7 0 0 0-3.978-3.978h-2.727v2.727a3.8 3.8 0 0 0 3.978 3.977h2.727z" class="cls-3" data-name="패스 2656" transform="translate(-21.435 -100.663)"/>
                </g>
                <g id="그룹_1820" data-name="그룹 1820" transform="translate(10.645 2.223)">
                    <path id="패스_2657" d="M31.683 102.431h4v2.454a3.7 3.7 0 0 1-3.909 3.911h-4v-2.456a3.745 3.745 0 0 1 3.909-3.909z" class="cls-4" data-name="패스 2657" transform="translate(-27.775 -102.431)"/>
                </g>
            </g>
            <path id="패스_2658" d="M48.27 111.822c1.773-1.475 1.178-3.322-.936-3.322h-8.171v1.847h6.4l-6.077 4.937c-1.772 1.475-1.177 3.322.936 3.322h8.898v-1.847h-7.127z" class="cls-5" data-name="패스 2658" transform="translate(4.926 2.017)"/>
            <path id="패스_2659" d="M77.378 116.759a.614.614 0 0 1-.57-.648V108.5h-3.346v7.152a3.165 3.165 0 0 0 3.34 2.954h7.91v-1.847z" class="cls-6" data-name="패스 2659" transform="translate(13.94 2.017)"/>
            <path id="패스_2660" d="M39.952 108.5h-9.225a3.165 3.165 0 0 0-2.952 3.341v3.811a3.164 3.164 0 0 0 3.34 2.954h8.84v-1.847h-7.272a1.425 1.425 0 0 1-1.563-1.213v-3.985a1.425 1.425 0 0 1 1.563-1.213h3.927v1.213a1.427 1.427 0 0 1-1.564 1.212h-1.432a1.426 1.426 0 0 0-1.564 1.213v.635h4.563a3.165 3.165 0 0 0 3.341-2.954z" class="cls-5" data-name="패스 2660" transform="translate(2.179 2.017)"/>
            <path id="패스_2661" d="M65.972 116.111v-1.49h5.495a3.165 3.165 0 0 0 3.342-2.954v-.215a3.165 3.165 0 0 0-3.342-2.952h-5.5a3.166 3.166 0 0 0-3.341 2.952v4.2a3.165 3.165 0 0 0 3.342 2.954h8.4v-1.847h-7.822a.615.615 0 0 1-.574-.648zm0-5.192a.614.614 0 0 1 .648-.572h4.273a.613.613 0 0 1 .571.646v1.207a.611.611 0 0 1-.645.571h-4.847z" class="cls-6" data-name="패스 2661" transform="translate(11.151 2.017)"/>
            <path id="패스_2662" d="M87.142 116.759a.614.614 0 0 1-.57-.648V108.5h-3.347v7.152a3.167 3.167 0 0 0 3.342 2.954h7.91v-1.847z" class="cls-6" data-name="패스 2662" transform="translate(16.453 2.017)"/>
            <g id="그룹_1823" data-name="그룹 1823" transform="translate(55.301 110.586)">
                <path id="패스_2663" d="M54.565 116.229a1.644 1.644 0 0 1-.7 2.217 1.642 1.642 0 0 1-2.216-.7l-3.531-6.789a1.646 1.646 0 0 1 .7-2.217 1.645 1.645 0 0 1 2.217.7z" class="cls-5" data-name="패스 2663" transform="translate(-47.933 -108.555)"/>
                <path id="패스_2664" d="M51.781 113.112a1.439 1.439 0 0 1-2.309.287c.9 1.4 2.155 1.344 2.848.37l.712-.614-.547-1.073z" class="cls-7" data-name="패스 2664" transform="translate(-47.537 -107.647)"/>
                <g id="그룹_1822" data-name="그룹 1822" transform="translate(7.065)">
                    <path id="패스_2665" d="M60.182 116.229a1.643 1.643 0 0 1-.7 2.217 1.643 1.643 0 0 1-2.217-.7l-3.53-6.789a1.645 1.645 0 0 1 .7-2.217 1.643 1.643 0 0 1 2.216.7z" class="cls-5" data-name="패스 2665" transform="translate(-53.552 -108.555)"/>
                    <path id="패스_2666" d="M57.4 113.112a1.439 1.439 0 0 1-2.309.287c.9 1.4 2.155 1.344 2.849.37l.71-.614-.547-1.073z" class="cls-7" data-name="패스 2666" transform="translate(-53.155 -107.647)"/>
                    <path id="패스_2667" d="M56.826 117.658a1.64 1.64 0 0 0 .743.788 1.642 1.642 0 0 0 2.216-.7l3.531-6.789a1.646 1.646 0 0 0-.7-2.217 1.643 1.643 0 0 0-2.216.7l-2.057 3.96s0 .014-.138.239c-.419.639-.951 1.5-1.7 1.511s-1.43-.85-1.43-.85z" class="cls-2" data-name="패스 2667" transform="translate(-53.159 -108.555)"/>
                </g>
                <path id="패스_2668" d="M51.218 117.658a1.629 1.629 0 0 0 .743.788 1.643 1.643 0 0 0 2.216-.7l3.53-6.789a1.644 1.644 0 0 0-.7-2.217 1.643 1.643 0 0 0-2.216.7l-2.057 3.96s0 .014-.138.239c-.417.639-.951 1.5-1.7 1.511s-1.428-.85-1.428-.85z" class="cls-3" data-name="패스 2668" transform="translate(-47.538 -108.555)"/>
            </g>
            <path id="패스_2669" d="M64.077 107a1.645 1.645 0 1 1-1.645-1.645A1.644 1.644 0 0 1 64.077 107z" class="cls-4" data-name="패스 2669" transform="translate(10.677 1.207)"/>
        </g>
    </g>
</svg>
