<svg xmlns="http://www.w3.org/2000/svg" width="123" height="39" viewBox="0 0 123 39">
    <defs>
        <style>
            .cls-1{fill:#fff;stroke:#d5d5d5}.cls-2{fill:#0fa53d}.cls-3{fill:#173f77}.cls-4{stroke:none}.cls-5{fill:none}
        </style>
    </defs>
    <g id="gmaket_logo" transform="translate(-110 -5117)">
        <g id="사각형_1105" class="cls-1" data-name="사각형 1105">
            <path d="M0 0h123v39H0z" class="cls-4" transform="translate(110 5117)"/>
            <path d="M.5.5h122v38H.5z" class="cls-5" transform="translate(110 5117)"/>
        </g>
        <g id="그룹_1687" data-name="그룹 1687" transform="translate(113.07 5115.495)">
            <g id="그룹_1686" data-name="그룹 1686" transform="translate(12.93 9.505)">
                <g id="그룹_1685" data-name="그룹 1685">
                    <path id="패스_2254" d="M31.767 18.235h-6.908a2.345 2.345 0 0 0 0 4.689h4.762v3.342a8.233 8.233 0 0 1-4.326 1.224 6.872 6.872 0 1 1 0-13.722 8.219 8.219 0 0 1 5.059 1.7 2.345 2.345 0 0 0 2.895-3.69A12.6 12.6 0 0 0 25.295 9.5c-6.819 0-12.365 4.753-12.365 11.123S18.475 31.75 25.295 31.75a12.547 12.547 0 0 0 8.16-2.441c.545-.446 1.283-1.109 1.283-1.809v-6.639c0-2.674-2.971-2.626-2.971-2.626z" class="cls-2" data-name="패스 2254" transform="translate(-12.93 -9.505)"/>
                    <path id="패스_2255" d="M25.3 18.844a2.345 2.345 0 1 1-2.344-2.344 2.346 2.346 0 0 1 2.344 2.344z" class="cls-3" data-name="패스 2255" transform="translate(-11.026 -7.771)"/>
                </g>
                <path id="패스_2256" d="M56.239 19.29a2.746 2.746 0 0 0-2.745-2.744h-6.843v2.186h5.255a1.227 1.227 0 0 1 1.228 1.228v.408h-4.362a3.089 3.089 0 0 0-3.091 3.088v1.2a3.09 3.09 0 0 0 3.091 3.088h7.467zm-7.523 4.875v-.2a1.379 1.379 0 0 1 1.378-1.381h3.04v2.964h-3.04a1.379 1.379 0 0 1-1.378-1.383z" class="cls-3" data-name="패스 2256" transform="translate(-4.813 -7.76)"/>
                <path id="패스_2257" d="M76.7 23.48a3 3 0 0 0 3.088-2.906v-1.123a3 3 0 0 0-3.088-2.9h-4.633a2.745 2.745 0 0 0-2.743 2.744V25a2.746 2.746 0 0 0 2.743 2.745h6.841v-2.192h-5.253a1.23 1.23 0 0 1-1.228-1.225v-.848zm.055-3.574v.187a1.343 1.343 0 0 1-1.381 1.3h-2.95v-2.787h2.95a1.343 1.343 0 0 1 1.385 1.3z" class="cls-3" data-name="패스 2257" transform="translate(1.046 -7.76)"/>
                <path id="패스_2258" d="M35.78 19.96a1.228 1.228 0 0 1 1.229-1.228h1.71v9.008h3.107v-9.008H43.5a1.226 1.226 0 0 1 1.228 1.228v7.78h3.11v-8.45a2.745 2.745 0 0 0-2.746-2.744h-9.675a2.744 2.744 0 0 0-2.743 2.744v8.45h3.106z" class="cls-3" data-name="패스 2258" transform="translate(-8.037 -7.76)"/>
                <path id="패스_2259" d="M59.758 18.732h2.675v-2.186h-4.267a2.745 2.745 0 0 0-2.743 2.744v8.45h3.1v-7.78a1.229 1.229 0 0 1 1.235-1.228z" class="cls-3" data-name="패스 2259" transform="translate(-2.399 -7.76)"/>
                <path id="패스_2260" d="M77.942 16.546v2.187h3.286v9.008h3.1v-9.008h3.213v-2.187z" class="cls-3" data-name="패스 2260" transform="translate(3.182 -7.76)"/>
                <path id="패스_2261" d="M71.55 27.741l-5.323-6.158 4.868-5.037h-3.106L64.7 20.065v-3.52h-3.109v11.196H64.7v-4.254l3.569 4.254z" class="cls-3" data-name="패스 2261" transform="translate(-.871 -7.76)"/>
            </g>
        </g>
    </g>
</svg>
