<svg xmlns="http://www.w3.org/2000/svg" width="123" height="39" viewBox="0 0 123 39">
    <defs>
        <style>
            .cls-1{fill:#fff;stroke:#d5d5d5}.cls-2{fill:#54544b}.cls-3{fill:#e30032}.cls-4{stroke:none}.cls-5{fill:none}
        </style>
    </defs>
    <g id="homeand_logo" transform="translate(-2061 -5117)">
        <g id="사각형_1329" class="cls-1" data-name="사각형 1329">
            <path d="M0 0h123v39H0z" class="cls-4" transform="translate(2061 5117)"/>
            <path d="M.5.5h122v38H.5z" class="cls-5" transform="translate(2061 5117)"/>
        </g>
        <g id="그룹_1817" data-name="그룹 1817" transform="translate(1619.822 5062.139)">
            <path id="패스_2644" d="M494.527 75.75a.189.189 0 0 1-.011-.271c.292-.473.592-.947.846-1.442.194-.376.321-.788.491-1.219-.624 0-1.19.006-1.758 0a.254.254 0 0 0-.28.185c-.176.406-.375.8-.59 1.251l-2.259-2.88c.12-.076.215-.136.307-.2a4.169 4.169 0 0 0 1.83-2.418 2.859 2.859 0 0 0-1.56-3.5 3.671 3.671 0 0 0-2.6-.2 2.977 2.977 0 0 0-2.216 2.7 3.493 3.493 0 0 0 .585 2.03c.2.342.435.669.652 1-.008.015-.012.033-.023.04a5.555 5.555 0 0 1-.223.155 4 4 0 0 0-1.924 4.181 3.266 3.266 0 0 0 1.81 2.587 4.722 4.722 0 0 0 4.649-.241c.259-.148.491-.34.749-.52.273.309.538.619.817.916a.416.416 0 0 0 .264.122c.72.01 1.438.006 2.156 0a1.324 1.324 0 0 0 .161-.024c-.055-.069-.091-.116-.13-.163-.582-.695-1.159-1.395-1.743-2.089zm-4.713-9.19a1.328 1.328 0 0 1 1.536 1.509 1.912 1.912 0 0 1-.63 1.17c-.286.253-.6.48-.909.709a.21.21 0 0 1-.2-.008 12.556 12.556 0 0 1-.814-1.14 3.605 3.605 0 0 1-.255-.76 1.45 1.45 0 0 1 1.272-1.48zm1.235 9.618a2.764 2.764 0 0 1-2.221.032 2.031 2.031 0 0 1-1.042-2.71 3.225 3.225 0 0 1 1.3-1.406l2.779 3.47a2.161 2.161 0 0 1-.817.614z" class="cls-2" data-name="패스 2644" transform="translate(4.365 .389)"/>
            <path id="패스_2645" d="M513.12 73.136a4.3 4.3 0 1 0 4.3 4.3 4.3 4.3 0 0 0-4.3-4.3z" class="cls-3" data-name="패스 2645" transform="translate(13.229 3.55)"/>
            <path id="패스_2646" d="M505.628 72.206v1.612h9.99v-1.632h-1.574v-.263c0-1.664.005-3.329-.005-4.992 0-.23.058-.3.291-.289.426.019.855.006 1.293.006v-1.524h-10v1.522c.442 0 .871.01 1.3 0 .2-.006.275.046.275.263-.008 1.679 0 3.358-.006 5.037 0 .079-.01.159-.017.264zm3.575-5.529a1.623 1.623 0 0 1 .179-.018h2.448c.133 0 .187.036.187.179q-.006 2.63 0 5.259a.745.745 0 0 1-.017.091h-2.8z" class="cls-2" data-name="패스 2646" transform="translate(12.004 .473)"/>
            <path id="패스_2647" d="M475.81 78.674a4.633 4.633 0 0 0 .083.742 1.442 1.442 0 0 0 1.207 1.3 6.223 6.223 0 0 0 1.013.09q4.04.01 8.08 0h.248v-5.757h-10.633c0 1.221-.008 2.424.002 3.625zm1.932-1.956h6.765v2.189c0 .158-.035.23-.213.23q-3.174-.008-6.349-.006c-.094 0-.208.025-.208-.131.007-.757.005-1.511.005-2.282z" class="cls-2" data-name="패스 2647" transform="translate(.551 4.285)"/>
            <path id="패스_2648" d="M476.539 70.4a4.3 4.3 0 1 0 4.382-4.3 4.318 4.318 0 0 0-4.382 4.3zm6.66-.057a2.354 2.354 0 1 1-2.36-2.343 2.365 2.365 0 0 1 2.361 2.342z" class="cls-3" data-name="패스 2648" transform="translate(.833 .848)"/>
            <path id="패스_2649" d="M505.2 72.1c0-.309 0-.62-.019-.929a.64.64 0 0 0-.563-.594c-.5-.026-.994-.008-1.52-.008v3.7h-2.815v-.327-2.678a.682.682 0 0 0-.59-.695c-.489-.024-.979-.006-1.5-.006v3.725h-3.881v1.652h14.612v-1.663H505.2V72.1z" class="cls-2" data-name="패스 2649" transform="translate(7.659 2.56)"/>
            <path id="패스_2650" d="M501.418 67.625a16.314 16.314 0 0 0 5.657 4.727l.937-1.729c-.6-.367-1.19-.7-1.748-1.08a9.951 9.951 0 0 1-3.994-4.491c-.508 0-1.021.007-1.535 0-.148 0-.194.061-.259.183a12.642 12.642 0 0 1-.866 1.529 12.408 12.408 0 0 1-3.5 3.088c-.418.266-.855.5-1.3.761l.945 1.74a16.343 16.343 0 0 0 5.663-4.728z" class="cls-2" data-name="패스 2650" transform="translate(7.852 .444)"/>
            <path id="패스_2651" d="M482.741 73.351a.716.716 0 0 0-.761-.771c-.37-.014-.74-.006-1.111 0-.079 0-.158.014-.263.022v.919h-6.236v1.644h14.624V73.5h-6.238c-.007-.062-.014-.106-.015-.149z" class="cls-2" data-name="패스 2651" transform="translate(0 3.334)"/>
            <path id="패스_2652" d="M515.549 75.619v-9.737c0-.256.005-.513 0-.771a.649.649 0 0 0-.538-.641c-.487-.03-.977-.008-1.478-.008v11.457h2.019z" class="cls-2" data-name="패스 2652" transform="translate(15.04 .216)"/>
            <path id="패스_2653" d="M486.032 64.944H482.1v-.31a.7.7 0 0 0-.716-.738c-.295-.007-.59 0-.886 0h-.53v1.062h-3.928V66.6h9.992z" class="cls-2" data-name="패스 2653" transform="translate(.641)"/>
        </g>
    </g>
</svg>
