<svg xmlns="http://www.w3.org/2000/svg" width="106.423" height="32.271" viewBox="0 0 106.423 32.271">
    <defs>
        <style>
            .cls-1{fill:#fff}.cls-2{fill:#3176ff}
        </style>
    </defs>
    <g id="icbtn_main_logo" transform="translate(-490.367 -810.888)">
        <g id="그룹_2313" data-name="그룹 2313" transform="translate(490.367 810.888)">
            <path id="패스_3017-2" d="M490.367 820.678v12.692a3.443 3.443 0 0 0 1.722 2.982l10.991 6.346a3.445 3.445 0 0 0 3.444 0l10.991-6.346a3.443 3.443 0 0 0 1.722-2.982v-12.692a3.444 3.444 0 0 0-1.722-2.983l-10.991-6.346a3.445 3.445 0 0 0-3.444 0l-10.991 6.351a3.444 3.444 0 0 0-1.722 2.978z" class="cls-1" data-name="패스 3017-2" transform="translate(-490.367 -810.888)"/>
        </g>
        <g id="그룹_2314" data-name="그룹 2314" transform="translate(493.976 820.148)">
            <path id="패스_3651" d="M511.3 833.061a1.559 1.559 0 0 0-2.2 0l-3.009 3-.079.078a3.82 3.82 0 0 1-5.411-5.393l1.059-1.055a1.552 1.552 0 0 0-2.2-2.191l-1.058 1.054a6.923 6.923 0 0 0 9.808 9.774l3.088-3.077a1.547 1.547 0 0 0 .002-2.19z" class="cls-2" data-name="패스 3651" transform="translate(-496.373 -826.598)"/>
            <path id="패스_3652" d="M507.272 833.589a1.56 1.56 0 0 0 2.2 0l3.009-3 .079-.079a3.82 3.82 0 0 1 5.411 5.393l-1.058 1.054a1.552 1.552 0 0 0 2.2 2.191l1.058-1.054a6.923 6.923 0 0 0-9.808-9.775l-3.088 3.077a1.547 1.547 0 0 0-.003 2.193z" class="cls-2" data-name="패스 3652" transform="translate(-500.542 -826.3)"/>
        </g>
        <g id="그룹_2316" data-name="그룹 2316" transform="translate(525.002 816.83)">
            <path id="패스_3653" d="M619.52 823.817h-3.766l.014-1.474h-2.674l-.014 1.474h-3.656v2.34h10.1z" class="cls-1" data-name="패스 3653" transform="translate(-572.529 -821.402)"/>
            <path id="패스_3654" d="M564.575 831h2.569v-9.78h-2.569v3.455h-1.737v2.425h1.737z" class="cls-1" data-name="패스 3654" transform="translate(-553.932 -820.956)"/>
            <path id="사각형_1690" d="M0 0h2.559v10.271H0z" class="cls-1" data-name="사각형 1690" transform="translate(13.938)"/>
            <path id="패스_3655" d="M551.72 829.5a7.864 7.864 0 0 0 1.068-1.107 2.513 2.513 0 0 0 .211-.349 2.622 2.622 0 0 0 .184.26 11.391 11.391 0 0 0 1.047 1.074q.638.589 1.191 1.056c.177.15.343.287.493.407l1.866-1.866c-.3-.228-.609-.479-.939-.765q-.632-.547-1.287-1.155a3.217 3.217 0 0 1-.917-1.357 6.051 6.051 0 0 1-.234-1.8v-1.578-.047h-2.869v1.698a5.942 5.942 0 0 1-.234 1.788 3.24 3.24 0 0 1-.92 1.349c-.518.5-1.008.946-1.453 1.319s-.455.295-.9.636l1.911 1.911c.306-.255.192-.088.5-.342a38.62 38.62 0 0 0 1.282-1.132z" class="cls-1" data-name="패스 3655" transform="translate(-548.014 -821.373)"/>
            <path id="패스_3656" d="M598.887 827.9h-1.812v2.538h1.812v9.266h2.855v-18.917h-2.855z" class="cls-1" data-name="패스 3656" transform="translate(-567.599 -820.781)"/>
            <path id="패스_3657" d="M629.475 827.929h-1.812v2.538h1.812v9.266h2.855v-18.884h-2.855z" class="cls-1" data-name="패스 3657" transform="translate(-579.809 -820.806)"/>
            <path id="사각형_1691" d="M0 0h17.385v2.538H0z" class="cls-1" data-name="사각형 1691" transform="translate(54.403 15.302)"/>
            <g id="그룹_2315" data-name="그룹 2315" transform="translate(36.866 5.969)">
                <path id="패스_3658" d="M619.184 833.517a4.2 4.2 0 0 0-1.01-1.491 4.645 4.645 0 0 0-1.6-.97 6.687 6.687 0 0 0-4.236 0 4.637 4.637 0 0 0-1.6.97 4.182 4.182 0 0 0-1.011 1.491 5.425 5.425 0 0 0 0 3.813 4.18 4.18 0 0 0 1.011 1.491 4.61 4.61 0 0 0 1.6.97 6.687 6.687 0 0 0 4.236 0 4.635 4.635 0 0 0 1.6-.97 4.177 4.177 0 0 0 1.009-1.491 5.421 5.421 0 0 0 0-3.813zm-2.411 2.842a2.049 2.049 0 0 1-.5.731 2.277 2.277 0 0 1-.786.476 3.279 3.279 0 0 1-2.078 0 2.261 2.261 0 0 1-.786-.476 2.05 2.05 0 0 1-.5-.731 2.657 2.657 0 0 1 0-1.87 2.05 2.05 0 0 1 .5-.731 2.27 2.27 0 0 1 .786-.476 3.28 3.28 0 0 1 2.078 0 2.277 2.277 0 0 1 .786.476 2.055 2.055 0 0 1 .5.731 2.657 2.657 0 0 1 0 1.87z" class="cls-1" data-name="패스 3658" transform="translate(-609.375 -830.712)"/>
            </g>
            <path id="패스_3659" d="M582.785 834.9h-.072v-3.329H589.306v-8.614h-9.166v2.537h6.532v3.206h-6.53v8.734h2.112c.774 0 7.043-.183 7.73-.193v-2.53c-.328.008-6.749.189-7.199.189z" class="cls-1" data-name="패스 3659" transform="translate(-560.838 -821.644)"/>
            <path id="패스_3660" d="M655.164 822.09h-2.88v4.12h-6.971v-4.12h-2.856v12.11h12.7v-2.006-.044zm-9.81 9.56v-3.005h6.912v3.005z" class="cls-1" data-name="패스 3660" transform="translate(-585.715 -821.301)"/>
            <path id="패스_3661" d="M553.463 844.632v-.85h10.212c.04 0 .071-.005.11-.006h2.006v-4.925H551.2v2.193h12.4v.826h-12.33v5h14.516v-2.239z" class="cls-1" data-name="패스 3661" transform="translate(-549.284 -827.992)"/>
        </g>
    </g>
</svg>
