<svg xmlns="http://www.w3.org/2000/svg" width="18" height="18" viewBox="0 0 18 18">
    <defs>
        <style>
            .cls-1{fill:none}.cls-2{clip-path:url(#clip-path)}.cls-3{fill:#f4f4f4}.cls-4,.cls-6{fill:#b2b2b2}.cls-5,.cls-6{stroke:none}
        </style>
        <clipPath id="clip-path">
            <path d="M0 0h18v18H0z" class="cls-1"/>
        </clipPath>
    </defs>
    <g id="icbtn_view" class="cls-2">
        <g id="패스_304" class="cls-3" data-name="패스 304">
            <path d="M9 17.5C4.313 17.5.5 13.687.5 9 .5 4.313 4.313.5 9 .5c4.687 0 8.5 3.813 8.5 8.5 0 4.687-3.813 8.5-8.5 8.5z" class="cls-5"/>
            <path d="M9 1C4.589 1 1 4.589 1 9s3.589 8 8 8 8-3.589 8-8-3.589-8-8-8m0-1a9 9 0 1 1 0 18A9 9 0 0 1 9 0z" class="cls-6"/>
        </g>
        <g id="그룹_19" data-name="그룹 19" transform="translate(6.071 3.775)">
            <path id="패스_318" d="M1961.195 2727.81a2.674 2.674 0 0 0-.576-.868 2.843 2.843 0 0 0-.854-.563 2.549 2.549 0 0 0-1.017-.21 4.008 4.008 0 0 0-.814.081 5.261 5.261 0 0 0-.759.217 5.156 5.156 0 0 0-.712.387 4.354 4.354 0 0 0-.644.509l.719 1.044q.19-.149.42-.3a4.227 4.227 0 0 1 .488-.271 3.364 3.364 0 0 1 .5-.176 1.921 1.921 0 0 1 .488-.068 1.177 1.177 0 0 1 .522.115 1.452 1.452 0 0 1 .427.318 1.736 1.736 0 0 1 .265.475 1.576 1.576 0 0 1 .1.556 1.386 1.386 0 0 1-.122.563 2.848 2.848 0 0 1-.3.522 2.6 2.6 0 0 1-.359.454 4.225 4.225 0 0 1-.332.305 3.614 3.614 0 0 0-.522.488 2.542 2.542 0 0 0-.359.529 2.279 2.279 0 0 0-.237.59 2.642 2.642 0 0 0-.075.631q0 .2.027.61a4.478 4.478 0 0 0 .081.651h1.41a2.988 2.988 0 0 1-.034-.461q-.007-.325-.007-.461a2.586 2.586 0 0 1 .061-.57 1.929 1.929 0 0 1 .2-.515 2.027 2.027 0 0 1 .312-.434 2.978 2.978 0 0 1 .434-.38 3.007 3.007 0 0 0 .624-.576 4.724 4.724 0 0 0 .475-.7 3.986 3.986 0 0 0 .278-.719 2.628 2.628 0 0 0 .1-.705 2.743 2.743 0 0 0-.208-1.068z" class="cls-4" data-name="패스 318" transform="translate(-1955.818 -2726.169)"/>
            <path id="패스_319" d="M1968.987 2797.66a1.089 1.089 0 0 0-.793.312 1.07 1.07 0 0 0-.319.8 1.167 1.167 0 0 0 .305.82 1.026 1.026 0 0 0 .793.333 1.061 1.061 0 0 0 .787-.333 1.127 1.127 0 0 0 .325-.82 1.1 1.1 0 0 0-1.1-1.112z" class="cls-4" data-name="패스 319" transform="translate(-1966.37 -2788.735)"/>
        </g>
    </g>
</svg>
