<svg xmlns="http://www.w3.org/2000/svg" width="106.421" height="32.271" viewBox="0 0 106.421 32.271">
    <defs>
        <style>
            .cls-1{fill:#3176ff}.cls-2{fill:#fff}
        </style>
    </defs>
    <g id="icbtn_sub_logo" transform="translate(-490.367 -674.335)">
        <g id="그룹_2319" data-name="그룹 2319" transform="translate(525.001 680.277)">
            <path id="패스_3662" d="M619.52 687.265h-3.766l.014-1.474h-2.673l-.014 1.474h-3.656v2.34h10.1z" class="cls-1" data-name="패스 3662" transform="translate(-572.529 -684.85)"/>
            <path id="패스_3663" d="M564.575 694.451h2.569v-9.78h-2.569v3.455h-1.737v2.423h1.737z" class="cls-1" data-name="패스 3663" transform="translate(-553.932 -684.403)"/>
            <path id="사각형_1694" d="M0 0h2.559v10.271H0z" class="cls-1" data-name="사각형 1694" transform="translate(13.938)"/>
            <path id="패스_3664" d="M551.72 692.946a7.825 7.825 0 0 0 1.068-1.107 2.438 2.438 0 0 0 .211-.349 2.635 2.635 0 0 0 .184.261 11.43 11.43 0 0 0 1.047 1.073q.638.59 1.191 1.056c.177.15.343.287.493.407l1.866-1.866a18.23 18.23 0 0 1-.939-.765q-.632-.546-1.287-1.154a3.217 3.217 0 0 1-.917-1.358 6.042 6.042 0 0 1-.234-1.8v-1.578-.047h-2.869V687.418a5.933 5.933 0 0 1-.234 1.787 3.237 3.237 0 0 1-.92 1.349c-.519.5-1.008.946-1.453 1.32s-.455.295-.9.636l1.911 1.911c.306-.254.192-.087.5-.342.391-.328.826-.709 1.282-1.133z" class="cls-1" data-name="패스 3664" transform="translate(-548.014 -684.821)"/>
            <path id="패스_3665" d="M598.887 691.351h-1.812v2.538h1.812v9.266h2.855v-18.92h-2.855z" class="cls-1" data-name="패스 3665" transform="translate(-567.599 -684.229)"/>
            <path id="패스_3666" d="M629.475 691.376h-1.812v2.538h1.812v9.266h2.855V684.3h-2.855z" class="cls-1" data-name="패스 3666" transform="translate(-579.81 -684.254)"/>
            <path id="사각형_1695" d="M0 0h17.385v2.538H0z" class="cls-1" data-name="사각형 1695" transform="translate(54.402 15.301)"/>
            <g id="그룹_2318" data-name="그룹 2318" transform="translate(36.866 5.969)">
                <path id="패스_3667" d="M619.184 696.965a4.2 4.2 0 0 0-1.01-1.491 4.645 4.645 0 0 0-1.6-.97 6.7 6.7 0 0 0-4.236 0 4.628 4.628 0 0 0-1.6.97 4.172 4.172 0 0 0-1.011 1.491 5.423 5.423 0 0 0 0 3.813 4.181 4.181 0 0 0 1.011 1.491 4.621 4.621 0 0 0 1.6.971 6.7 6.7 0 0 0 4.236 0 4.647 4.647 0 0 0 1.6-.971 4.173 4.173 0 0 0 1.009-1.491 5.419 5.419 0 0 0 0-3.813zm-2.411 2.841a2.049 2.049 0 0 1-.5.731 2.28 2.28 0 0 1-.786.476 3.28 3.28 0 0 1-2.078 0 2.262 2.262 0 0 1-.786-.476 2.045 2.045 0 0 1-.5-.731 2.657 2.657 0 0 1 0-1.87 2.055 2.055 0 0 1 .5-.731 2.269 2.269 0 0 1 .786-.476 3.281 3.281 0 0 1 2.078 0 2.287 2.287 0 0 1 .786.476 2.058 2.058 0 0 1 .5.731 2.657 2.657 0 0 1 0 1.87z" class="cls-1" data-name="패스 3667" transform="translate(-609.375 -694.16)"/>
            </g>
            <path id="패스_3668" d="M582.785 698.345h-.072v-3.328h6.592v-8.615h-9.165v2.537h6.532v3.215h-6.529v8.733h2.112c.774 0 7.043-.182 7.73-.193v-2.529c-.33 0-6.75.18-7.2.18z" class="cls-1" data-name="패스 3668" transform="translate(-560.839 -685.091)"/>
            <path id="패스_3669" d="M655.164 685.537h-2.88v4.12h-6.97v-4.12h-2.856v12.108h12.7v-2.005-.044zm-9.81 9.56v-3.006h6.912v3.009z" class="cls-1" data-name="패스 3669" transform="translate(-585.716 -684.749)"/>
            <path id="패스_3670" d="M553.463 708.079v-.85h10.212c.04 0 .072 0 .11-.006h2.006V702.3H551.2v2.194h12.4v.825h-12.33v5h14.516v-2.239z" class="cls-1" data-name="패스 3670" transform="translate(-549.284 -691.439)"/>
        </g>
        <g id="그룹_2320" data-name="그룹 2320" transform="translate(490.367 674.335)">
            <path id="패스_3017-2" d="M490.367 684.125v12.691a3.444 3.444 0 0 0 1.722 2.983l10.99 6.346a3.445 3.445 0 0 0 3.444 0l10.991-6.346a3.444 3.444 0 0 0 1.722-2.983v-12.691a3.444 3.444 0 0 0-1.722-2.983l-10.99-6.342a3.442 3.442 0 0 0-3.444 0l-10.99 6.345a3.445 3.445 0 0 0-1.723 2.98z" class="cls-1" data-name="패스 3017-2" transform="translate(-490.367 -674.335)"/>
        </g>
        <g id="그룹_2321" data-name="그룹 2321" transform="translate(493.976 683.595)">
            <path id="패스_3671" d="M511.3 696.508a1.559 1.559 0 0 0-2.2 0l-3.009 3-.079.078a3.82 3.82 0 0 1-5.411-5.393l1.059-1.054a1.552 1.552 0 0 0-2.2-2.191L498.4 692a6.923 6.923 0 0 0 9.807 9.774l3.093-3.074a1.547 1.547 0 0 0 0-2.192z" class="cls-2" data-name="패스 3671" transform="translate(-496.373 -690.045)"/>
            <path id="패스_3672" d="M507.272 697.036a1.559 1.559 0 0 0 2.2 0l3.009-3 .079-.078a3.82 3.82 0 0 1 5.411 5.393l-1.058 1.054a1.552 1.552 0 0 0 2.2 2.191l1.058-1.054a6.923 6.923 0 0 0-9.807-9.775l-3.087 3.077a1.547 1.547 0 0 0-.005 2.192z" class="cls-2" data-name="패스 3672" transform="translate(-500.543 -689.747)"/>
        </g>
    </g>
</svg>
