<svg xmlns="http://www.w3.org/2000/svg" width="123" height="39" viewBox="0 0 123 39">
    <defs>
        <style>
            .cls-1{fill:#fff}.cls-2{fill:#e3007f}.cls-3{fill:#231815}.cls-4,.cls-5{stroke:none}.cls-5{fill:#d5d5d5}
        </style>
    </defs>
    <g id="istyle_logo" transform="translate(-3303 -5117)">
        <g id="패스_2679" class="cls-1" data-name="패스 2679">
            <path d="M122.5 38.5H.5V.5h122v38z" class="cls-4" transform="translate(3303 5117)"/>
            <path d="M1 1v37h121V1H1M0 0h123v39H0V0z" class="cls-5" transform="translate(3303 5117)"/>
        </g>
        <g id="그룹_1834" data-name="그룹 1834" transform="translate(3057.326 4999.136)">
            <path id="패스_2680" d="M267.613 131.855a1.785 1.785 0 1 1-1.783-1.734 1.7 1.7 0 0 1 1.783 1.734z" class="cls-2" data-name="패스 2680"/>
            <path id="사각형_1335" d="M0 0h2.483v9.43H0z" class="cls-3" data-name="사각형 1335" transform="translate(264.577 134.993)"/>
            <path id="패스_2681" d="M285.71 133.857h-4.186v-1.867h10.3v1.867h-3.88v9.943h-2.23z" class="cls-3" data-name="패스 2681" transform="translate(2.027 .217)"/>
            <path id="패스_2682" d="M306.211 131.99h2.679v9.659h4.572v2.151h-7.251z" class="cls-3" data-name="패스 2682" transform="translate(4.889 .217)"/>
            <path id="패스_2683" d="M323.99 138.421h-4.207v3.179h4.752v2.243h-7.379v-12.22h7.379v1.83h-4.752v3.156h4.207z" class="cls-3" data-name="패스 2683" transform="translate(6.158 .174)"/>
            <path id="패스_2684" d="M327.708 143.711v-1.359l1.4-1.288c2.773-2.573 4.079-3.988 4.1-5.546a1.855 1.855 0 0 0-2.1-1.977 4.241 4.241 0 0 0-2.519.98l-.652-1.578a5.832 5.832 0 0 1 3.625-1.214c2.61 0 3.881 1.65 3.881 3.571 0 2.067-1.488 3.736-3.554 5.638l-1.016.888v.038h4.821v1.848z" class="cls-3" data-name="패스 2684" transform="translate(7.382 .186)"/>
            <path id="패스_2685" d="M292.423 131.99h3.069l2.952 4.368 3.022-4.368h3.024l-4.3 6.469v5.341h-3.21l.024-5.361z" class="cls-3" data-name="패스 2685" transform="translate(3.29 .217)"/>
            <path id="패스_2686" d="M343.092 139.3v-7.107h-2.63l-4.82 7.343v1.45h5.348v2.464h2.1v-2.464h1.777V139.3zm-2.166 0h-2.908l2.908-4.3z" class="cls-3" data-name="패스 2686" transform="translate(8.301 .24)"/>
            <path id="패스_2687" d="M278.475 132.147v1.921s-3.972-.348-4 1.07c-.03 1.575 5.175 2.763 4.787 5.48-.329 2.3-2.551 3.81-7.148 3.179l-.127-2.205s2.552.915 3.842-.155-.724-2.081-2.614-3.544-2.3-4.991 1.748-5.746a10.751 10.751 0 0 1 3.512 0z" class="cls-3" data-name="패스 2687" transform="translate(.903 .217)"/>
        </g>
    </g>
</svg>
