<svg xmlns="http://www.w3.org/2000/svg" width="1920" height="1064.408" viewBox="0 0 1920 1064.408">
    <defs>
        <style>
            .cls-1{fill:#f7f7f7}.cls-2,.cls-3{stroke:none}.cls-3{fill:#eaeaea}
        </style>
    </defs>
    <g id="빼기_1" class="cls-1" data-name="빼기 1">
        <path d="M22064.5-10048.385a50.365 50.365 0 0 0-.457-1.987c-.88-3.516-2.195-7.087-3.906-10.612-3.375-6.938-8.397-13.897-14.924-20.684-6.432-6.688-14.492-13.385-23.961-19.904-9.356-6.44-20.295-12.849-32.51-19.051-24.183-12.277-54.053-24.115-88.775-35.184-34.4-10.964-73.858-21.271-117.28-30.634-43.431-9.366-91.197-17.867-141.964-25.267-51.264-7.473-106.045-13.89-162.823-19.073-57.83-5.28-118.341-9.334-179.851-12.052-63.092-2.788-128.043-4.201-193.051-4.201-65.004 0-129.955 1.413-193.047 4.201-61.51 2.718-122.021 6.772-179.851 12.052-56.791 5.185-111.57 11.602-162.82 19.073-50.766 7.401-98.53 15.901-141.964 25.267-43.431 9.365-82.888 19.672-117.279 30.634-34.723 11.069-64.592 22.907-88.775 35.185-12.23 6.21-23.168 12.62-32.512 19.05-9.459 6.512-17.52 13.209-23.96 19.904-6.532 6.793-11.554 13.751-14.923 20.684-1.703 3.502-3.017 7.072-3.91 10.612a46.91 46.91 0 0 0-.455 1.983l-.002-1055.112h1919v1055.116z" class="cls-2" transform="translate(-20145 11104.001)"/>
        <path d="M20146.002-10052.435a56.646 56.646 0 0 1 3.416-8.768c3.39-6.98 8.441-13.982 15.012-20.812 6.463-6.718 14.549-13.437 24.037-19.97 9.361-6.443 20.318-12.863 32.568-19.083 24.207-12.29 54.102-24.139 88.85-35.215 34.406-10.967 73.879-21.279 117.326-30.647 43.443-9.367 91.219-17.87 141.996-25.272 51.258-7.473 106.049-13.892 162.846-19.077 57.84-5.28 118.357-9.335 179.875-12.053 63.1-2.788 128.058-4.202 193.07-4.202 65.014 0 129.975 1.414 193.074 4.202 61.518 2.718 122.035 6.773 179.875 12.053 56.785 5.184 111.574 11.603 162.848 19.077 50.78 7.401 98.555 15.904 141.998 25.272 43.437 9.367 82.91 19.677 117.326 30.647 34.748 11.077 64.64 22.925 88.85 35.215 12.234 6.212 23.193 12.632 32.566 19.085 9.496 6.537 17.584 13.255 24.037 19.968 6.565 6.826 11.615 13.827 15.016 20.813a56.878 56.878 0 0 1 3.412 8.766V-11103h-1918l.002 1050.566m1918.998 12.842h-.008a47.135 47.135 0 0 0-1.433-10.657c-.875-3.492-2.18-7.03-3.872-10.516-3.351-6.887-8.341-13.803-14.835-20.555-6.41-6.667-14.446-13.341-23.883-19.84-9.334-6.423-20.252-12.821-32.453-19.016-24.162-12.266-54.006-24.094-88.702-35.153-34.38-10.96-73.822-21.262-117.232-30.622-43.418-9.362-91.17-17.861-141.932-25.26-51.244-7.47-106.017-13.888-162.795-19.071-57.834-5.28-118.335-9.333-179.828-12.05-63.093-2.788-128.039-4.201-193.029-4.201-64.99 0-129.932 1.413-193.025 4.201-61.493 2.717-121.994 6.77-179.828 12.05-56.776 5.183-111.547 11.6-162.793 19.07-50.758 7.4-98.51 15.899-141.93 25.26-43.414 9.362-82.858 19.665-117.233 30.623-34.697 11.06-64.54 22.887-88.7 35.153-12.206 6.198-23.126 12.595-32.456 19.017-9.431 6.493-17.467 13.168-23.883 19.839-6.494 6.752-11.486 13.668-14.834 20.555-1.689 3.476-2.992 7.014-3.875 10.516a47.361 47.361 0 0 0-1.431 10.656h-.008L20145-11104h1920v1064.408z" class="cls-3" transform="translate(-20145 11104.001)"/>
    </g>
</svg>
