<svg xmlns="http://www.w3.org/2000/svg" width="1920.001" height="856.002" viewBox="0 0 1920.001 856.002">
    <defs>
        <style>
            .cls-1{fill:#f7f7f7}.cls-2,.cls-3{stroke:none}.cls-3{fill:#eaeaea}
        </style>
    </defs>
    <g id="합치기_7" class="cls-1" data-name="합치기 7">
        <path d="M7018-10248.499c-65.128 0-130.214-1.452-193.452-4.317-61.63-2.791-122.25-6.956-180.177-12.38-56.875-5.325-111.73-11.916-163.043-19.59-50.822-7.6-98.612-16.328-142.043-25.943-43.426-9.612-82.85-20.189-117.177-31.436-34.645-11.352-64.399-23.485-88.434-36.064-12.137-6.352-22.98-12.909-32.224-19.488-9.34-6.647-17.273-13.476-23.578-20.298-6.376-6.896-11.242-13.95-14.46-20.967-1.624-3.539-2.86-7.137-3.675-10.696a48.575 48.575 0 0 1-1.234-11.318l.005-.504h-.008v-642.001h1919.001v642.001h-.004l.002.504.002.495c0 3.599-.416 7.241-1.236 10.823-.815 3.559-2.051 7.157-3.675 10.696-3.218 7.016-8.084 14.07-14.46 20.967-6.305 6.822-14.238 13.65-23.578 20.298-9.245 6.58-20.087 13.136-32.224 19.488-24.036 12.579-53.79 24.712-88.435 36.064-34.328 11.247-73.752 21.824-117.178 31.436-43.43 9.615-91.221 18.343-142.044 25.943-51.312 7.674-106.168 14.265-163.042 19.59-57.928 5.424-118.549 9.589-180.178 12.38-63.238 2.865-128.324 4.317-193.451 4.317z" class="cls-2" transform="translate(-6058 11104.001)"/>
        <path d="M7018-10248.999c65.12 0 130.198-1.452 193.428-4.316 61.621-2.791 122.234-6.956 180.154-12.38 56.866-5.324 111.712-11.913 163.016-19.585 50.81-7.599 98.59-16.325 142.009-25.936 43.41-9.61 82.818-20.181 117.13-31.424 34.62-11.343 64.348-23.466 88.36-36.032 12.116-6.342 22.939-12.887 32.165-19.453 9.312-6.627 17.219-13.433 23.501-20.229 6.34-6.858 11.176-13.869 14.373-20.837 1.61-3.507 2.834-7.073 3.642-10.598a48.08 48.08 0 0 0 1.22-11.202l-.005-1.009h.008v-641.001h-1918V-10462h.011l-.009 1.009-.003.49c0 3.562.412 7.165 1.224 10.712.808 3.525 2.033 7.09 3.642 10.598 3.197 6.968 8.032 13.98 14.373 20.837 6.282 6.796 14.189 13.602 23.5 20.229 9.227 6.566 20.05 13.111 32.166 19.453 24.012 12.566 53.74 24.689 88.36 36.032 34.31 11.243 73.718 21.815 117.129 31.424 43.418 9.61 91.197 18.337 142.008 25.936 51.303 7.672 106.15 14.261 163.015 19.586 57.92 5.423 118.533 9.588 180.154 12.379 63.23 2.864 128.309 4.316 193.429 4.316m0 1c-530.195 0-960-95.142-960-212.502l.003-.499H6058v-643.001h1920.001V-10461H7978l.002.499c0 117.36-429.808 212.502-960.001 212.502z" class="cls-3" transform="translate(-6058 11104.001)"/>
    </g>
</svg>
