<svg xmlns="http://www.w3.org/2000/svg" width="80.957" height="28.125" viewBox="0 0 80.957 28.125">
    <defs>
        <style>
            .cls-1{fill:#fff}
        </style>
    </defs>
    <g id="new_logo" transform="translate(-888.52 -534.65)">
        <path id="패스_1519" d="M981.836 538.4h-4.247l.016-1.663h-3.015l-.015 1.663h-4.123v2.639h11.385z" class="cls-1" data-name="패스 1519" transform="translate(-40.322 -1.028)"/>
        <path id="패스_1520" d="M910.255 546.274h2.9v-11.03h-2.9v3.9H908.3v2.732h1.959z" class="cls-1" data-name="패스 1520" transform="translate(-9.733 -.293)"/>
        <path id="사각형_309" d="M0 0h2.886v11.583H0z" class="cls-1" data-name="사각형 309" transform="translate(904.238 534.65)"/>
        <path id="패스_1521" d="M892.7 544.794a8.9 8.9 0 0 0 1.2-1.249 2.862 2.862 0 0 0 .238-.394 2.96 2.96 0 0 0 .208.294 12.863 12.863 0 0 0 1.181 1.211q.72.665 1.344 1.191c.2.169.387.323.556.459l2.1-2.1a22.877 22.877 0 0 1-1.059-.863q-.713-.616-1.451-1.3a3.629 3.629 0 0 1-1.035-1.531 6.821 6.821 0 0 1-.264-2.031v-1.78c0-.019 0-.035-.005-.054h-3.236c0 .019-.006.035-.006.054v1.862a6.7 6.7 0 0 1-.264 2.016 3.653 3.653 0 0 1-1.038 1.522c-.584.567-1.137 1.068-1.639 1.488s-.514.333-1.017.718l2.155 2.155c.345-.287.216-.1.569-.386.458-.376.948-.804 1.463-1.282z" class="cls-1" data-name="패스 1521" transform="translate(0 -.98)"/>
        <path id="패스_1522" d="M956.017 542.689h-2.043v2.862h2.043V556h3.22v-21.337h-3.22z" class="cls-1" data-name="패스 1522" transform="translate(-32.213 -.006)"/>
        <path id="패스_1523" d="M996.827 542.73h-2.043v2.862h2.043v10.45h3.22v-21.296h-3.22z" class="cls-1" data-name="패스 1523" transform="translate(-52.298 -.047)"/>
        <path id="사각형_310" d="M0 0h19.605v2.862H0z" class="cls-1" data-name="사각형 310" transform="translate(949.871 551.906)"/>
        <g id="그룹_716" data-name="그룹 716" transform="translate(930.095 541.382)">
            <path id="패스_1524" d="M981.446 551.068a4.739 4.739 0 0 0-1.139-1.681 5.233 5.233 0 0 0-1.808-1.094 7.545 7.545 0 0 0-4.777 0 5.212 5.212 0 0 0-1.807 1.094 4.7 4.7 0 0 0-1.14 1.681 6.113 6.113 0 0 0 0 4.3 4.7 4.7 0 0 0 1.14 1.681 5.2 5.2 0 0 0 1.807 1.094 7.545 7.545 0 0 0 4.777 0 5.226 5.226 0 0 0 1.808-1.094 4.7 4.7 0 0 0 1.138-1.681 6.113 6.113 0 0 0 0-4.3zm-2.719 3.2a2.313 2.313 0 0 1-.559.825 2.571 2.571 0 0 1-.887.537 3.707 3.707 0 0 1-2.343 0 2.569 2.569 0 0 1-.887-.537 2.316 2.316 0 0 1-.559-.825 3 3 0 0 1 0-2.109 2.314 2.314 0 0 1 .559-.825 2.57 2.57 0 0 1 .887-.537 3.708 3.708 0 0 1 2.343 0 2.564 2.564 0 0 1 .887.537 2.317 2.317 0 0 1 .559.825 3 3 0 0 1 0 2.109z" class="cls-1" data-name="패스 1524" transform="translate(-970.384 -547.905)"/>
        </g>
        <path id="패스_1525" d="M934.362 551.022h-.081v-3.754H941.716v-9.715h-10.337v2.862h7.367v3.625h-7.363v9.849H933.768c.872 0 7.942-.206 8.717-.218v-2.853c-.375.001-7.615.204-8.123.204z" class="cls-1" data-name="패스 1525" transform="translate(-21.093 -1.424)"/>
        <path id="패스_1526" d="M1028.85 536.4h-3.25v4.646h-7.861V536.4h-3.221v13.655h14.326v-2.262-.05zm-11.063 10.782v-3.389h7.8v3.389z" class="cls-1" data-name="패스 1526" transform="translate(-62.012 -.862)"/>
        <path id="패스_1527" d="M895.321 565.282v-.959h11.516c.045 0 .08-.006.124-.006h2.262v-5.554h-16.46v2.473h13.985v.93h-13.9v5.634H909.218v-2.525z" class="cls-1" data-name="패스 1527" transform="translate(-2.089 -11.867)"/>
        <path id="패스_1528" d="M894.33 585.543a2.11 2.11 0 0 1-1.566-.664l.335-.384a1.846 1.846 0 0 0 .567.405 1.581 1.581 0 0 0 .67.149 1.069 1.069 0 0 0 .689-.2.648.648 0 0 0 .25-.53.664.664 0 0 0-.058-.289.657.657 0 0 0-.158-.207 1.1 1.1 0 0 0-.235-.155q-.134-.067-.293-.14l-.646-.28a2.6 2.6 0 0 1-.317-.161 1.454 1.454 0 0 1-.293-.232 1.093 1.093 0 0 1-.216-.323 1.052 1.052 0 0 1-.082-.43 1.066 1.066 0 0 1 .107-.475 1.155 1.155 0 0 1 .293-.378 1.341 1.341 0 0 1 .445-.247 1.734 1.734 0 0 1 .564-.088 1.782 1.782 0 0 1 .74.152 1.81 1.81 0 0 1 .576.4l-.3.36a1.65 1.65 0 0 0-.457-.308 1.35 1.35 0 0 0-.561-.113.962.962 0 0 0-.609.177.577.577 0 0 0-.225.481.545.545 0 0 0 .067.28.737.737 0 0 0 .171.2 1.064 1.064 0 0 0 .238.146c.089.041.177.079.262.116l.64.274a2.9 2.9 0 0 1 .363.189 1.315 1.315 0 0 1 .292.244 1.033 1.033 0 0 1 .2.326 1.234 1.234 0 0 1 .07.436 1.152 1.152 0 0 1-.107.5 1.224 1.224 0 0 1-.3.4 1.393 1.393 0 0 1-.478.271 1.929 1.929 0 0 1-.638.098z" class="cls-1" data-name="패스 1528" transform="translate(-2.089 -22.767)"/>
        <path id="패스_1529" d="M911.828 581.079h2.578v.475h-2.011v1.408h1.694v.475h-1.694v1.633h2.078v.475h-2.645z" class="cls-1" data-name="패스 1529" transform="translate(-11.471 -22.85)"/>
        <path id="패스_1530" d="M930.587 581.079h.567v3.992h1.95v.475h-2.516z" class="cls-1" data-name="패스 1530" transform="translate(-20.703 -22.85)"/>
        <path id="패스_1531" d="M949.219 581.079h.567v3.992h1.95v.475h-2.517z" class="cls-1" data-name="패스 1531" transform="translate(-29.873 -22.85)"/>
        <path id="패스_1532" d="M967.726 581.079h2.574v.475h-2.011v1.408h1.694v.475h-1.694v1.633h2.079v.475h-2.645z" class="cls-1" data-name="패스 1532" transform="translate(-38.981 -22.85)"/>
        <path id="패스_1533" d="M988.37 585.546l-1.087-1.9h-.806v1.9h-.567v-4.467h1.4a2.893 2.893 0 0 1 .629.064 1.335 1.335 0 0 1 .495.213 1.011 1.011 0 0 1 .324.391 1.341 1.341 0 0 1 .116.588 1.208 1.208 0 0 1-.278.835 1.39 1.39 0 0 1-.736.421l1.146 1.955zm-1.893-2.346h.75a1.313 1.313 0 0 0 .807-.212.77.77 0 0 0 .277-.654.687.687 0 0 0-.277-.627 1.506 1.506 0 0 0-.807-.178h-.75z" class="cls-1" data-name="패스 1533" transform="translate(-47.931 -22.85)"/>
        <path id="패스_1534" d="M1004.426 581.079h.567v1.871h2.084v-1.871h.567v4.467h-.567v-2.109h-2.084v2.109h-.567z" class="cls-1" data-name="패스 1534" transform="translate(-57.043 -22.85)"/>
        <path id="패스_1535" d="M1024.668 585.625a1.991 1.991 0 0 1-.634-.1 1.224 1.224 0 0 1-.509-.326 1.574 1.574 0 0 1-.338-.594 2.9 2.9 0 0 1-.122-.908v-2.62h.567v2.639a2.441 2.441 0 0 0 .079.673 1.17 1.17 0 0 0 .219.436.788.788 0 0 0 .329.235 1.164 1.164 0 0 0 .408.07 1.233 1.233 0 0 0 .421-.07.8.8 0 0 0 .338-.235 1.175 1.175 0 0 0 .225-.436 2.354 2.354 0 0 0 .082-.673v-2.639h.542v2.62a2.908 2.908 0 0 1-.122.908 1.575 1.575 0 0 1-.338.594 1.222 1.222 0 0 1-.512.326 2.019 2.019 0 0 1-.635.1z" class="cls-1" data-name="패스 1535" transform="translate(-66.216 -22.85)"/>
        <path id="패스_1536" d="M1041.787 581.079h1.328a2.979 2.979 0 0 1 .625.061 1.432 1.432 0 0 1 .484.192.929.929 0 0 1 .314.338 1.032 1.032 0 0 1 .113.5 1.085 1.085 0 0 1-.171.6.887.887 0 0 1-.487.369v.031a1.216 1.216 0 0 1 .658.344 1 1 0 0 1 .256.722 1.26 1.26 0 0 1-.125.576 1.126 1.126 0 0 1-.347.408 1.588 1.588 0 0 1-.536.244 2.7 2.7 0 0 1-.686.082h-1.426zm1.231 1.9a1.354 1.354 0 0 0 .829-.2.648.648 0 0 0 .25-.537.6.6 0 0 0-.265-.555 1.548 1.548 0 0 0-.789-.161h-.689v1.45zm.116 2.115a1.63 1.63 0 0 0 .9-.21.74.74 0 0 0 .32-.667.664.664 0 0 0-.314-.612 1.749 1.749 0 0 0-.905-.192h-.78v1.687z" class="cls-1" data-name="패스 1536" transform="translate(-75.431 -22.85)"/>
    </g>
</svg>
