<svg xmlns="http://www.w3.org/2000/svg" width="123" height="39" viewBox="0 0 123 39">
    <defs>
        <style>
            .cls-1{fill:#fff;stroke:#d5d5d5}.cls-2{fill:#231815}.cls-3{stroke:none}.cls-4{fill:none}
        </style>
    </defs>
    <g id="ssg_logo" transform="translate(-1396 -5117)">
        <g id="사각형_1304" class="cls-1" data-name="사각형 1304">
            <path d="M0 0h123v39H0z" class="cls-3" transform="translate(1396 5117)"/>
            <path d="M.5.5h122v38H.5z" class="cls-4" transform="translate(1396 5117)"/>
        </g>
        <g id="그룹_1772" data-name="그룹 1772" transform="translate(1389.999 5061.337)">
            <path id="패스_2624" d="M53.608 77.468a1.927 1.927 0 1 1-1.927-1.927 1.927 1.927 0 0 1 1.927 1.927" class="cls-2" data-name="패스 2624" transform="translate(13.863 3.748)"/>
            <path id="패스_2625" d="M18.808 80.715l2.023-2.422a7.133 7.133 0 0 0 4.642 1.888c1.4 0 2.244-.555 2.244-1.465v-.046c0-.866-.533-1.31-3.132-1.976-3.133-.8-5.155-1.668-5.155-4.755v-.045c0-2.822 2.266-4.689 5.443-4.689a9 9 0 0 1 5.777 1.978l-1.777 2.577a7.294 7.294 0 0 0-4.044-1.533c-1.31 0-2 .6-2 1.355v.045c0 1.021.666 1.355 3.355 2.045 3.154.821 4.932 1.955 4.932 4.665v.043c0 3.089-2.356 4.822-5.709 4.822a9.9 9.9 0 0 1-6.6-2.488" class="cls-2" data-name="패스 2625" transform="translate(0 .013)"/>
            <path id="패스_2626" d="M28.245 80.715l2.021-2.422a7.136 7.136 0 0 0 4.644 1.887c1.4 0 2.244-.555 2.244-1.465v-.045c0-.866-.534-1.31-3.132-1.976-3.133-.8-5.155-1.668-5.155-4.755v-.045c0-2.822 2.266-4.689 5.442-4.689a9 9 0 0 1 5.777 1.978L38.31 71.76a7.3 7.3 0 0 0-4.044-1.533c-1.31 0-2 .6-2 1.355v.045c0 1.021.666 1.355 3.355 2.045 3.154.821 4.932 1.955 4.932 4.665v.043c0 3.089-2.356 4.822-5.709 4.822a9.9 9.9 0 0 1-6.6-2.488" class="cls-2" data-name="패스 2626" transform="translate(4.228 .013)"/>
            <path id="패스_2627" d="M37.71 75.262v-.045a7.982 7.982 0 0 1 8.154-8.042 8.533 8.533 0 0 1 6.109 2.133l-2.155 2.6a5.733 5.733 0 0 0-4.066-1.577 4.671 4.671 0 0 0-4.467 4.842v.045A4.661 4.661 0 0 0 46 80.15a5.453 5.453 0 0 0 3.222-.934v-2.222h-3.448V74.04h6.755v6.755a10.1 10.1 0 0 1-6.643 2.466 7.783 7.783 0 0 1-8.175-8" class="cls-2" data-name="패스 2627" transform="translate(8.468)"/>
            <path id="패스_2628" d="M53.048 75.262v-.045a7.9 7.9 0 0 1 8.11-8.042 8.016 8.016 0 0 1 6.131 2.4l-2.176 2.511a5.741 5.741 0 0 0-3.978-1.755 4.607 4.607 0 0 0-4.51 4.842v.045a4.62 4.62 0 0 0 4.51 4.888 5.61 5.61 0 0 0 4.088-1.822l2.178 2.2a7.952 7.952 0 0 1-6.377 2.777 7.851 7.851 0 0 1-7.975-8" class="cls-2" data-name="패스 2628" transform="translate(15.339)"/>
            <path id="패스_2629" d="M63.374 75.262v-.045a8.269 8.269 0 0 1 16.53-.045v.045a8.269 8.269 0 0 1-16.53.045m12.954 0v-.045a4.725 4.725 0 0 0-4.71-4.887 4.65 4.65 0 0 0-4.665 4.842v.045a4.724 4.724 0 0 0 4.709 4.888 4.652 4.652 0 0 0 4.667-4.843" class="cls-2" data-name="패스 2629" transform="translate(19.965)"/>
            <path id="패스_2630" d="M75.894 67.359h3.688l4.088 6.577 4.087-6.577h3.688v15.552h-3.4V72.758L83.671 79.4h-.089l-4.332-6.576v10.087h-3.356z" class="cls-2" data-name="패스 2630" transform="translate(25.574 .082)"/>
        </g>
    </g>
</svg>
