<svg xmlns="http://www.w3.org/2000/svg" width="123" height="39" viewBox="0 0 123 39">
    <defs>
        <style>
            .cls-1{fill:#fff;stroke:#d5d5d5}.cls-2{fill:#e74e0e}.cls-3{fill:#404648}.cls-4{stroke:none}.cls-5{fill:none}
        </style>
    </defs>
    <g id="tmon_logo" transform="translate(-908 -5117)">
        <g id="사각형_1299" class="cls-1" data-name="사각형 1299">
            <path d="M0 0h123v39H0z" class="cls-4" transform="translate(908 5117)"/>
            <path d="M.5.5h122v38H.5z" class="cls-5" transform="translate(908 5117)"/>
        </g>
        <g id="그룹_1769" data-name="그룹 1769" transform="translate(505.906 5110.731)">
            <path id="패스_2619" d="M471.589 17.269a8.578 8.578 0 1 0 8.581 8.577 8.572 8.572 0 0 0-8.581-8.577zm0 12.787a4.21 4.21 0 1 1 4.215-4.211 4.217 4.217 0 0 1-4.211 4.211z" class="cls-2" data-name="패스 2619"/>
            <path id="패스_2620" d="M443.938 18.4h-15.377c-.47 0-.467.285-.467.285a.324.324 0 0 0 .193.3 1.568 1.568 0 0 1 .967 1.408V22.2a.566.566 0 0 0 .563.564h4.318a.563.563 0 0 1 .563.562v9.412a.563.563 0 0 0 .561.563h3.241a.568.568 0 0 0 .564-.563v-9.415a.563.563 0 0 1 .56-.562h4.313a.565.565 0 0 0 .567-.564v-3.238a.564.564 0 0 0-.566-.559z" class="cls-3" data-name="패스 2620"/>
            <path id="패스_2621" d="M498.118 32.711a1.57 1.57 0 0 1-.968-1.421V18.959a.563.563 0 0 0-.561-.563h-3.24a.56.56 0 0 0-.56.563v6.9c0 .31-.163.366-.354.122l-5.74-7.143a1.347 1.347 0 0 0-.918-.438h-3.32a.564.564 0 0 0-.561.563v13.77a.565.565 0 0 0 .561.563h3.243a.564.564 0 0 0 .564-.563v-6.9c0-.307.162-.366.358-.124l5.809 7.15a1.348 1.348 0 0 0 .919.436h4.498c.467 0 .467-.288.467-.288a.326.326 0 0 0-.197-.296z" class="cls-3" data-name="패스 2621"/>
            <path id="패스_2622" d="M463.337 32.633a1.6 1.6 0 0 1-.788-1.138l-3.267-12.552c-.078-.3-.318-.543-.53-.543 0 0-.325-.07-.714.457l-4.506 6.4a.413.413 0 0 1-.327.19.4.4 0 0 1-.323-.19l-4.511-6.4c-.385-.527-.713-.457-.713-.457-.212 0-.45.244-.529.543L443.864 31.5a1.613 1.613 0 0 1-.792 1.138c-.306.148-.3.368-.3.368s-.011.3.266.3h4.16a.767.767 0 0 0 .7-.543l1.208-4.64c.081-.3.288-.339.47-.085l3.3 4.695a.4.4 0 0 0 .323.189.412.412 0 0 0 .327-.189l3.3-4.695c.178-.254.389-.213.466.085l1.207 4.64a.773.773 0 0 0 .707.543h4.158c.278 0 .267-.3.267-.3s.015-.225-.294-.373z" class="cls-3" data-name="패스 2622"/>
            <path id="패스_2623" d="M473.87 25.846a2.275 2.275 0 1 1-2.274-2.275 2.273 2.273 0 0 1 2.274 2.275z" class="cls-3" data-name="패스 2623"/>
        </g>
    </g>
</svg>
